<?xml version="1.0" encoding="UTF-8"?>
<svg width="556px" height="236px" viewBox="0 0 556 236" version="1.1" xmlns="http://www.w3.org/2000/svg" xmlns:xlink="http://www.w3.org/1999/xlink">
    <title>vouch-logo-v2-lighter-blue</title>
    <defs>
        <polygon id="path-1" points="0.5601 0.3776 96.531 0.3776 96.531 116.1586 0.5601 116.1586"></polygon>
        <polygon id="path-3" points="0.4822 0.0953 185.2122 0.0953 185.2122 47 0.4822 47"></polygon>
    </defs>
    <g id="vouch-logo-v2-lighter-blue" stroke="none" stroke-width="1" fill="none" fill-rule="evenodd">
        <g id="Group-17">
            <path d="M185.1997,117.3742 C185.1997,95.0332 176.6317,87.2762 165.4977,87.2762 C155.3347,87.2762 145.7957,95.0332 145.7957,117.3742 C145.7957,139.7132 155.3347,147.4722 165.4977,147.4722 C175.7677,147.4722 185.1997,139.7132 185.1997,117.3742 M109.2047,117.3742 C109.2047,78.0392 129.6117,55.6112 165.4977,55.6112 C201.3847,55.6112 221.7897,77.9112 221.7897,117.3742 C221.7897,156.8912 201.3847,179.1372 165.4977,179.1372 C129.6117,179.1372 109.2047,157.0952 109.2047,117.3742" id="Fill-1" fill="#213246"></path>
            <path d="M341.6909,117.3742 C341.6909,77.6662 363.6859,55.6112 396.3099,55.6112 C428.8559,55.6112 446.9319,72.2182 448.4719,102.5982 L412.0579,102.5982 C410.3879,90.1592 405.2539,86.5722 396.4009,86.5722 C384.5609,86.5722 378.2819,95.8542 378.2819,117.3742 C378.2819,138.4472 385.0269,148.1762 396.4009,148.1762 C405.4249,148.1762 410.3879,145.0922 412.0579,132.1502 L448.4719,132.1502 C447.1719,162.5692 427.0969,179.1372 396.7529,179.1372 C361.7779,179.1372 341.6909,156.4792 341.6909,117.3742" id="Fill-3" fill="#213246"></path>
            <g id="Group-7" transform="translate(459.000000, 59.106000)">
                <mask id="mask-2" fill="white">
                    <use xlink:href="#path-1"></use>
                </mask>
                <g id="Clip-6"></g>
                <polygon id="Fill-5" fill="#213246" mask="url(#mask-2)" points="0.5601 0.3776 35.3011 0.3776 35.3011 42.7196 61.7901 42.7196 61.7901 0.3776 96.5311 0.3776 96.5311 116.1586 61.7901 116.1586 61.7901 73.4206 35.3011 73.4206 35.3011 116.1586 0.5601 116.1586"></polygon>
            </g>
            <path d="M232.2798,59.5246 L266.4988,59.5246 L266.4988,133.8146 C266.4988,142.9396 271.2128,150.2496 280.3408,150.2496 C290.3808,150.2496 296.3458,144.0656 296.3458,128.4936 L296.3458,59.4826 L330.6108,59.4826 L330.6108,175.0996 L296.3458,175.0996 L296.3458,161.5206 C292.2988,171.3736 280.4118,178.3526 268.0878,178.3526 C244.8148,178.3526 232.2798,163.1766 232.2798,138.0016 L232.2798,59.5246 Z" id="Fill-8" fill="#213246"></path>
            <polygon id="Fill-10" fill="#213246" points="70.4141 59.4836 54.5761 135.3796 38.5481 59.4836 0.0001 59.4836 34.5961 175.2646 74.3631 175.2646 109.2071 59.4836"></polygon>
            <g id="Group-14" transform="translate(304.000000, 188.106000)">
                <mask id="mask-4" fill="white">
                    <use xlink:href="#path-3"></use>
                </mask>
                <g id="Clip-13"></g>
                <path d="M92.8472,16.5343 C72.5022,16.5343 58.1482,9.9993 45.0442,0.0953 L0.4822,0.0953 C20.9122,29.1863 53.7202,47.0003 92.8472,47.0003 C131.9742,47.0003 164.7822,29.1863 185.2122,0.0953 L140.6482,0.0953 C127.5462,9.9993 113.1922,16.5343 92.8472,16.5343" id="Fill-12" fill="#3BE0AD" mask="url(#mask-4)"></path>
            </g>
            <path d="M229.6103,18.0851 C211.8413,6.5241 190.4643,0.0001 166.8223,0.0001 C143.1803,0.0001 121.9143,6.5241 104.2893,18.0851 C93.0623,25.4511 83.3243,34.8681 75.4033,45.9751 L120.4053,45.9751 C133.2143,36.6441 147.2873,30.4651 166.8223,30.4651 C186.3573,30.4651 200.5503,36.6441 213.5113,45.9751 L258.7883,45.9751 C250.7713,34.8681 240.9303,25.4511 229.6103,18.0851" id="Fill-15" fill="#3BE0AD"></path>
        </g>
    </g>
</svg>